# xmcd
#
# Track frame offsets:
# 182
# 10900
# 25010
# 36557
# 46267
# 58562
# 69957
# 78895
# 97335
# 110237
# 122962
# 137907
# 151665
# 165762
# 179720
#
# Disc length: 2534 seconds
#
#
# Revision: 0
# Processed by: cddbd v1.5.1PL0 Copyright (c) Steve Scherf et al.
# Submitted via: FreeRIP 2.941 
#
DISCID=c609e40f
DTITLE=Cepillín - Cepillín 15 Exitos
DYEAR=1900
DGENRE=Kids
TTITLE0=Un Día com Mamá
TTITLE1=La Feria de Cepillín
TTITLE2=En un bosque de la China
TTITLE3=Tomás
TTITLE4=El Payasito de la Tele
TTITLE5=Amor Chiquito
TTITLE6=Speedy González
TTITLE7=Las Mañanitas
TTITLE8=La Gallinita CO CO UA
TTITLE9=El Piojo y la Pulga
TTITLE10=Popotitos
TTITLE11=Vamos a la escuela
TTITLE12=Tamborilelo
TTITLE13=Pancho López
TTITLE14=La Brujita
EXTD=
EXTT0=
EXTT1=
EXTT2=
EXTT3=
EXTT4=
EXTT5=
EXTT6=
EXTT7=
EXTT8=
EXTT9=
EXTT10=
EXTT11=
EXTT12=
EXTT13=
EXTT14=
PLAYORDER=
